<svg width="48" height="30" viewBox="0 0 48 30" fill="none" xmlns="http://www.w3.org/2000/svg">
<path d="M45.7955 13.5H44.3182V7.5C44.3182 6.70435 44.0069 5.94129 43.4528 5.37868C42.8987 4.81607 42.1472 4.5 41.3636 4.5H38.4091V3C38.4091 2.20435 38.0978 1.44129 37.5437 0.87868C36.9896 0.31607 36.2381 0 35.4545 0H31.0227C30.2391 0 29.4876 0.31607 28.9335 0.87868C28.3795 1.44129 28.0682 2.20435 28.0682 3V13.5H19.2045V3C19.2045 2.20435 18.8933 1.44129 18.3392 0.87868C17.7851 0.31607 17.0336 0 16.25 0H11.8182C11.0346 0 10.2831 0.31607 9.729 0.87868C9.17492 1.44129 8.86364 2.20435 8.86364 3V4.5H5.90909C5.1255 4.5 4.374 4.81607 3.81991 5.37868C3.26583 5.94129 2.95455 6.70435 2.95455 7.5V13.5H1.47727C1.08548 13.5 0.709726 13.658 0.432683 13.9393C0.155641 14.2206 0 14.6022 0 15C0 15.3978 0.155641 15.7794 0.432683 16.0607C0.709726 16.342 1.08548 16.5 1.47727 16.5H2.95455V22.5C2.95455 23.2956 3.26583 24.0587 3.81991 24.6213C4.374 25.1839 5.1255 25.5 5.90909 25.5H8.86364V27C8.86364 27.7956 9.17492 28.5587 9.729 29.1213C10.2831 29.6839 11.0346 30 11.8182 30H16.25C17.0336 30 17.7851 29.6839 18.3392 29.1213C18.8933 28.5587 19.2045 27.7956 19.2045 27V16.5H28.0682V27C28.0682 27.7956 28.3795 28.5587 28.9335 29.1213C29.4876 29.6839 30.2391 30 31.0227 30H35.4545C36.2381 30 36.9896 29.6839 37.5437 29.1213C38.0978 28.5587 38.4091 27.7956 38.4091 27V25.5H41.3636C42.1472 25.5 42.8987 25.1839 43.4528 24.6213C44.0069 24.0587 44.3182 23.2956 44.3182 22.5V16.5H45.7955C46.1873 16.5 46.563 16.342 46.84 16.0607C47.1171 15.7794 47.2727 15.3978 47.2727 15C47.2727 14.6022 47.1171 14.2206 46.84 13.9393C46.563 13.658 46.1873 13.5 45.7955 13.5ZM5.90909 22.5V7.5H8.86364V22.5H5.90909ZM16.25 27H11.8182V3H16.25V27ZM35.4545 27H31.0227V3H35.4545V23.9663C35.4545 23.9775 35.4545 23.9888 35.4545 24C35.4545 24.0112 35.4545 24.0225 35.4545 24.0337V27ZM41.3636 22.5H38.4091V7.5H41.3636V22.5Z" fill="white"/>
</svg>
